# xmcd
#
# Track frame offsets:
#	150
#	17346
#	34037
#	48308
#	58346
#	75421
#	93470
#	108276
#	123019
#	141403
#	157213
#	172393
#	185642
#	197439
#	215710
#	240988
#
# Disc length: 3221 seconds
#
# Revision: 1
# Processed by: cddbd v1.5.2PL0 Copyright (c) Steve Scherf et al.
# Submitted via: audiograbber 1.83.01
#
DISCID=dc0c9310
DTITLE=Various Artist - Country Gold Standards Vol.1
DYEAR=1900
DGENRE=
TTITLE0=George Strait - Famous Last Words Of A Fool
TTITLE1=Alabama - Give Me One More Shot
TTITLE2=Tammy Wynette - D-I-V-O-R-C-E
TTITLE3=Jim Reeves - Home
TTITLE4=Patsy Cline - Faded Love
TTITLE5=George Jones - 50,000 Names
TTITLE6=Dwight Yoakam - Guitars, Cadillacs
TTITLE7=Jim Reeves and Patsy Cline - Have You Ever Been Lonely (Have You Ever Bee
TTITLE7=n Blue)
TTITLE8=Johnny Cash - Ghost Riders In The Sky
TTITLE9=Mary-Chapin Carpenter - Grow Old With Me
TTITLE10=Lorrie Morgan - Grow Old With Me
TTITLE11=Patsy Cline - Crazy
TTITLE12=Roger Miller - Engine Engine #9
TTITLE13=Tracy Lawrence - Today's Lonely Fool
TTITLE14=Tanya Lawrence - (Without You) What Do I Do With Me
TTITLE15=Data - Data Track
EXTD=
EXTT0=
EXTT1=
EXTT2=
EXTT3=
EXTT4=
EXTT5=
EXTT6=
EXTT7=
EXTT8=
EXTT9=
EXTT10=
EXTT11=
EXTT12=
EXTT13=
EXTT14=
EXTT15=
PLAYORDER=
